<?xml version="1.0" standalone="no"?><!DOCTYPE svg PUBLIC "-//W3C//DTD SVG 1.1//EN"
  "http://www.w3.org/Graphics/SVG/1.1/DTD/svg11.dtd">
<svg class="icon" width="64px" height="64.00px" viewBox="0 0 1024 1024" version="1.1"
     xmlns="http://www.w3.org/2000/svg">
  <path fill="#ffffff"
        d="M509.6 234l-4.5-0.2c-36-1.3-68.3-20-86.5-50.3-18.2-30.2-19.6-67.6-3.8-100l2-4.1 4.5 0.2c36 1.3 68.3 20 86.5 50.3 18.2 30.2 19.6 67.6 3.8 100l-2 4.1zM425.4 94c-11.6 27.1-9.8 57.6 5.1 82.4 14.9 24.8 41 40.8 70.4 43.2 11.6-27.1 9.8-57.6-5.1-82.4-14.9-24.8-41-40.8-70.4-43.2z"/>
  <path fill="#ffffff"
        d="M422.7 280.4c-34.6 0-66.9-17.4-86.7-46.7l-2.5-3.8 2.4-3.9c19.1-30.6 51.5-49.2 86.8-49.8 35.3-0.6 68.3 16.8 88.5 46.7l2.5 3.8-2.4 3.9c-19.1 30.6-51.5 49.2-86.8 49.8h-1.8z m-72.4-50.8c17.6 23.6 44.9 37.3 73.9 36.8 29-0.5 55.8-15.1 72.6-39.3-17.6-23.6-44.9-37.3-73.9-36.8-29 0.5-55.8 15.1-72.6 39.3z"/>
  <path fill="#ffffff"
        d="M422 377.2l-2.1-4c-16.9-31.8-16.8-69.2 0.3-100 17.1-30.8 48.7-50.7 84.7-53.3l4.5-0.3 2.1 4c16.9 31.8 16.8 69.2-0.3 100-17.1 30.8-48.7 50.7-84.7 53.3l-4.5 0.3z m10.4-97.2c-14.1 25.4-14.8 55.9-2.2 82.6 29.3-3.5 54.8-20.3 68.8-45.7 14.1-25.4 14.8-55.9 2.2-82.6-29.3 3.5-54.8 20.3-68.8 45.7z"/>
  <path fill="#ffffff"
        d="M593.8 374.2l-4.5-0.2c-36-1.3-68.3-20-86.5-50.3-18.2-30.2-19.6-67.6-3.8-100l2-4.1 4.5 0.2c36 1.3 68.3 20 86.5 50.3 18.2 30.2 19.6 67.6 3.8 100l-2 4.1z m-84.1-140c-11.6 27.1-9.8 57.6 5.1 82.4 14.9 24.8 41 40.8 70.4 43.2 11.6-27.1 9.8-57.6-5.1-82.4-15-24.9-41-40.8-70.4-43.2z"/>
  <path fill="#ffffff"
        d="M586.2 277.5c-34.6 0-66.9-17.4-86.7-46.7L497 227l2.4-3.9c19.1-30.6 51.5-49.2 86.8-49.8 35.2-0.6 68.3 16.8 88.5 46.7l2.5 3.8-2.4 3.9c-19.1 30.6-51.5 49.2-86.8 49.8l-0.1-7 0.1 7h-1.8z m-72.4-50.8c17.3 23.2 44 36.8 72.4 36.8h1.6c29-0.5 55.8-15.1 72.6-39.3-17.3-23.2-44-36.8-72.4-36.8h-1.6c-29 0.5-55.8 15.1-72.6 39.3z"/>
  <path fill="#ffffff"
        d="M501.3 234.2l-2.1-4c-16.9-31.8-16.8-69.2 0.3-100 17.1-30.8 48.7-50.7 84.7-53.3l4.5-0.3 2.1 4c16.9 31.8 16.8 69.2-0.3 100-17.1 30.8-48.7 50.7-84.7 53.3l-4.5 0.3z m79.2-142.9c-29.3 3.5-54.8 20.3-68.8 45.7-14.1 25.4-14.8 55.9-2.2 82.6 29.3-3.5 54.8-20.3 68.8-45.7 14-25.4 14.7-56 2.2-82.6zM283 313.3c-13.6 0-27.3-2.7-40.2-8.2-32.5-13.8-55.6-43.2-61.8-78.7l-0.8-4.5 3.8-2.5c29.9-20.1 67.1-24 99.5-10.2s55.6 43.2 61.8 78.7l0.8 4.5-3.8 2.5c-18 12.2-38.6 18.4-59.3 18.4z m-87.3-84.7c6.5 28.8 25.9 52.3 52.6 63.7 26.7 11.3 57.1 8.9 82.3-6.4-6.5-28.8-25.9-52.3-52.6-63.7-26.7-11.4-57.1-8.9-82.3 6.4z"/>
  <path fill="#ffffff"
        d="M242.2 400.7c-12.3 0-24.7-2.2-36.8-6.5l-4.3-1.6-0.3-4.5c-2.5-35.9 12.8-70.1 40.9-91.3 28.2-21.2 65.2-26.5 99-14.2l4.3 1.6 0.3 4.5c2.5 35.9-12.8 70.1-40.9 91.3-18.1 13.6-39.9 20.7-62.2 20.7z m-27.6-18.2c28.2 8.7 58.3 3.7 81.4-13.7 23.1-17.4 36.3-45 35.6-74.5-28.2-8.7-58.3-3.7-81.4 13.7-23.1 17.4-36.2 45-35.6 74.5z"/>
  <path fill="#ffffff"
        d="M359.4 459.7l-4.1-2c-32.4-15.8-54.3-46.1-58.6-81.1-4.3-35 9.6-69.7 37.2-92.9l3.5-2.9 4.1 2c32.4 15.8 54.3 46.1 58.6 81.1 4.3 35-9.6 69.7-37.2 92.9l-3.5 2.9z m-19.9-162.2c-21.6 20-32.4 48.6-28.8 77.4 3.5 28.8 20.9 53.9 46.7 68.1 21.6-20 32.4-48.6 28.8-77.4-3.6-28.7-20.9-53.9-46.7-68.1z"/>
  <path fill="#ffffff"
        d="M433.5 377.2c-13.6 0-27.3-2.7-40.2-8.2-32.5-13.8-55.6-43.2-61.8-78.7l-0.8-4.5 3.8-2.5c29.9-20.1 67.1-24 99.5-10.2 32.5 13.8 55.6 43.2 61.8 78.7l0.8 4.5-3.8 2.5c-17.9 12.2-38.6 18.4-59.3 18.4z m-87.3-84.8c6.5 28.8 25.9 52.3 52.6 63.7 26.7 11.3 57.1 8.9 82.3-6.4-6.5-28.8-25.9-52.3-52.6-63.7-26.6-11.3-57.1-8.9-82.3 6.4z"/>
  <path fill="#ffffff"
        d="M372.8 302.2c-12.3 0-24.7-2.2-36.8-6.5l-4.3-1.6-0.3-4.5c-2.5-35.9 12.8-70.1 40.9-91.3 28.2-21.2 65.2-26.5 99-14.2l4.3 1.6 0.3 4.5c2.5 35.9-12.8 70.1-40.9 91.3-18.1 13.7-39.9 20.7-62.2 20.7zM345.2 284c28.2 8.7 58.3 3.7 81.4-13.7 23.1-17.4 36.3-45 35.6-74.5-28.2-8.7-58.3-3.7-81.4 13.7-23.1 17.5-36.2 45-35.6 74.5z"/>
  <path fill="#ffffff"
        d="M339.4 297.4l-4.1-2c-32.4-15.8-54.3-46.1-58.6-81.1-4.3-35 9.6-69.7 37.2-92.9l3.5-2.9 4.1 2c32.4 15.8 54.3 46.1 58.6 81.1 4.3 35-9.6 69.7-37.2 92.9l-3.5 2.9z m-19.9-162.2c-21.6 20-32.4 48.6-28.8 77.4 3.5 28.8 20.9 53.9 46.7 68.1 21.6-20 32.4-48.6 28.8-77.4-3.5-28.7-20.8-53.9-46.7-68.1zM148.9 509.3c-26.8 0-53-10.5-73.1-29.9l-3.3-3.2 1.6-4.3c12.3-33.9 40.2-58.8 74.5-66.7 34.4-7.9 70.3 2.3 96.2 27.3l3.3 3.2-1.6 4.3c-12.3 33.9-40.2 58.8-74.5 66.7-7.6 1.8-15.4 2.6-23.1 2.6z m-60-36.9c22.2 19.4 51.7 27.1 80 20.6 28.2-6.5 51.4-26.4 62.8-53.6-22.2-19.4-51.7-27.1-80-20.6-28.2 6.6-51.4 26.5-62.8 53.6z"/>
  <path fill="#ffffff"
        d="M189.8 601.9l-2.9-3.5c-23.2-27.6-30.8-64.2-20.5-97.9s37.1-59.8 71.8-69.7l4.4-1.3 2.9 3.5c23.2 27.6 30.8 64.2 20.5 97.9s-37.1 59.8-71.8 69.7l-4.4 1.3z m-10.1-97.3c-8.5 27.7-2.9 57.7 15 81.2 27.9-9.5 49.4-31.2 57.8-59 8.5-27.7 2.9-57.7-15-81.2-27.9 9.5-49.3 31.3-57.8 59z"/>
  <path fill="#ffffff"
        d="M333.9 565.7c-28.9 0-56.4-11.6-76.2-32.8-24-25.8-33.2-62-24.5-97l1.1-4.4 4.5-0.8c35.5-6.3 71 5.4 95.1 31.2 24 25.8 33.2 62 24.5 97l-1.1 4.4-4.5 0.8c-6.4 1.1-12.7 1.6-18.9 1.6z m-66-42.4c19.8 21.2 48.6 31.4 77.8 27.6 5.7-28.9-2.4-58.4-22.2-79.6-19.8-21.2-48.6-31.3-77.8-27.6-5.7 29 2.5 58.4 22.2 79.6z"/>
  <path fill="#ffffff"
        d="M308.3 472.5c-26.8 0-53-10.5-73.1-29.9l-3.3-3.2 1.6-4.3c12.3-33.9 40.2-58.8 74.5-66.7 34.4-7.9 70.3 2.3 96.2 27.3l3.3 3.2-1.6 4.3c-12.3 33.9-40.2 58.8-74.5 66.7-7.7 1.8-15.4 2.6-23.1 2.6z m-60-36.9c22.2 19.4 51.7 27.1 80 20.6 28.2-6.5 51.4-26.4 62.8-53.6-22.2-19.4-51.7-27.1-80-20.6-28.2 6.6-51.4 26.5-62.8 53.6z"/>
  <path fill="#ffffff"
        d="M237.6 445.5l-2.9-3.5c-23.2-27.6-30.8-64.2-20.5-97.9s37.1-59.8 71.8-69.7l4.4-1.3 2.9 3.5c23.2 27.6 30.8 64.2 20.5 97.9s-37.1 59.8-71.8 69.7l-4.4 1.3z m47.7-156.2c-27.9 9.5-49.4 31.2-57.8 59-8.5 27.7-2.9 57.7 15 81.2 27.9-9.5 49.4-31.2 57.8-59s2.9-57.8-15-81.2z"/>
  <path fill="#ffffff"
        d="M222.3 446.1c-28.9 0-56.4-11.6-76.2-32.8-24-25.8-33.2-62-24.5-97l1.1-4.4 4.5-0.8c35.5-6.3 71 5.4 95.1 31.2 24 25.8 33.2 62 24.5 97l-1.1 4.4-4.5 0.8c-6.3 1.1-12.6 1.6-18.9 1.6z m-88.1-121.9c-5.7 28.9 2.4 58.4 22.2 79.6 19.8 21.2 48.6 31.3 77.8 27.6 5.7-28.9-2.4-58.4-22.2-79.6-19.7-21.2-48.5-31.4-77.8-27.6zM154.5 746.9c-5 0-10.1-0.3-15.2-1.1l-4.5-0.6-1.3-4.4c-9.9-34.6-2.1-71.2 21.1-97.8s58.2-39.5 93.9-34.5l4.5 0.6 1.3 4.4c9.9 34.6 2.1 71.2-21.1 97.8-19.8 22.9-48.4 35.6-78.7 35.6z m-8.6-14.4c29.4 2.7 57.8-8.5 76.8-30.3 19-21.9 26.1-51.6 19.3-80.3-29.4-2.7-57.8 8.5-76.8 30.3s-26 51.6-19.3 80.3z"/>
  <path fill="#ffffff"
        d="M303.6 778l-4.4-1.1c-35-8.7-62.7-33.8-74.2-67.1s-5.1-70.2 17.1-98.6l2.8-3.6 4.4 1.1c35 8.7 62.7 33.8 74.2 67.1s5.1 70.2-17.1 98.6l-2.8 3.6z m-65.3-72.8c9.4 27.4 31.6 48.4 59.9 56.9 17-24.1 21.6-54.3 12.1-81.7s-31.6-48.4-59.9-56.9c-17 24.1-21.6 54.3-12.1 81.7z"/>
  <path fill="#ffffff"
        d="M337.6 684.1c-6.5 0-13.1-0.6-19.6-1.9-34.6-6.7-63.3-30.7-76.8-64.1l-1.7-4.2 3.2-3.3c25-25.9 60.6-37.4 95.2-30.7 34.6 6.7 63.3 30.7 76.8 64.1l1.7 4.2-3.2 3.3c-20.3 21.1-47.6 32.6-75.6 32.6z m-81.7-67c12.4 26.8 36.2 45.8 64.7 51.3s57.7-3.2 79.2-23.4c-12.4-26.8-36.2-45.8-64.7-51.3-28.4-5.5-57.7 3.2-79.2 23.4z"/>
  <path fill="#ffffff"
        d="M261.8 623.5c-5 0-10.1-0.3-15.2-1.1l-4.5-0.6-1.3-4.4c-9.9-34.6-2.1-71.2 21.1-97.8 23.1-26.6 58.2-39.5 93.9-34.5l4.5 0.6 1.3 4.4c9.9 34.6 2.1 71.2-21.1 97.8-19.8 22.8-48.4 35.6-78.7 35.6z m-8.6-14.4c29.4 2.7 57.8-8.5 76.8-30.3 19-21.9 26.1-51.6 19.3-80.3-29.4-2.7-57.8 8.5-76.8 30.3-19 21.9-26.1 51.6-19.3 80.3z"/>
  <path fill="#ffffff"
        d="M250.3 623.4l-4.4-1.1c-35-8.7-62.7-33.8-74.2-67.1s-5.1-70.2 17.1-98.6l2.8-3.6 4.4 1.1c35 8.7 62.7 33.8 74.2 67.1s5.1 70.2-17.1 98.6l-2.8 3.6z m-53.2-154.5c-17 24.1-21.6 54.3-12.1 81.7 9.4 27.4 31.6 48.4 59.9 56.9 17-24.1 21.6-54.3 12.1-81.7-9.5-27.4-31.6-48.4-59.9-56.9z"/>
  <path fill="#ffffff"
        d="M177 652.9c-6.5 0-13.1-0.6-19.6-1.9-34.6-6.7-63.3-30.7-76.8-64.1l-1.7-4.2 3.2-3.3c25-25.9 60.6-37.4 95.2-30.7 34.6 6.7 63.3 30.7 76.8 64.1l1.7 4.2-3.2 3.3c-20.2 21.1-47.5 32.6-75.6 32.6z m-81.6-67c12.4 26.8 36.2 45.8 64.7 51.3s57.7-3.2 79.2-23.4c-12.4-26.8-36.2-45.8-64.7-51.3-28.4-5.5-57.7 3.2-79.2 23.4zM343.4 926.2l-3.6-2.8c-28.4-22.2-43.5-56.4-40.4-91.5 3.1-35.1 23.9-66.2 55.7-83.1l4-2.1 3.6 2.8c28.4 22.2 43.5 56.4 40.4 91.5-3.1 35.1-23.9 66.2-55.7 83.1l-4 2.1z m14.2-162.8c-25.3 15.1-41.8 40.8-44.3 69.7-2.5 28.9 9.2 57.1 31.5 76.3 25.3-15.1 41.8-40.8 44.3-69.7 2.6-28.8-9.1-57-31.5-76.3z"/>
  <path fill="#ffffff"
        d="M454.8 863.1c-21 0-41.7-6.3-59.3-18.6-28.9-20.2-45.4-53.8-44.1-89.8l0.2-4.5 4.2-1.7c33.4-13.5 70.6-9.5 99.5 10.7 28.9 20.2 45.4 53.8 44.1 89.8l-0.2 4.5-4.2 1.7c-13.1 5.3-26.7 7.9-40.2 7.9z m-89.5-103.3c0.4 29.5 14.5 56.6 38.2 73.2s54 20.6 81.9 10.8c-0.4-29.5-14.5-56.6-38.2-73.2-23.8-16.5-54.1-20.5-81.9-10.8z"/>
  <path fill="#ffffff"
        d="M411 777.2c-19.5 0-39-5.5-56.3-16.3l-3.9-2.4 0.6-4.5c5-35.7 27.1-65.9 59-80.8s69.3-12.4 99.8 6.7l3.9 2.4-0.6 4.5c-5 35.7-27.1 65.9-59 80.8-13.8 6.4-28.7 9.6-43.5 9.6z m-44.9-25.8c25.7 14.4 56.2 15.8 82.5 3.5 26.3-12.3 44.8-36.5 50.3-65.5-25.7-14.4-56.2-15.8-82.5-3.5-26.3 12.3-44.8 36.5-50.3 65.5z"/>
  <path fill="#ffffff"
        d="M357.6 763.3l-3.6-2.8c-28.4-22.2-43.5-56.4-40.4-91.5 3.1-35.1 23.9-66.2 55.7-83.1l4-2.1 3.6 2.8c28.4 22.2 43.5 56.4 40.4 91.5s-23.9 66.2-55.7 83.1l-4 2.1z m14.3-162.8c-25.3 15.1-41.8 40.8-44.3 69.7s9.2 57.1 31.5 76.3c25.3-15.1 41.8-40.8 44.3-69.7 2.5-28.9-9.2-57.1-31.5-76.3z"/>
  <path fill="#ffffff"
        d="M320.8 769.3c-21 0-41.7-6.3-59.3-18.6-28.9-20.2-45.4-53.8-44.1-89.8l0.2-4.5 4.2-1.7c33.4-13.5 70.6-9.5 99.5 10.7 28.9 20.2 45.4 53.8 44.1 89.8l-0.2 4.5-4.2 1.7c-13.1 5.3-26.7 7.9-40.2 7.9zM231.3 666c0.4 29.5 14.5 56.6 38.2 73.2 23.7 16.6 54 20.6 81.9 10.8-0.4-29.5-14.5-56.6-38.2-73.2s-54-20.5-81.9-10.8z"/>
  <path fill="#ffffff"
        d="M262.8 846.3c-19.5 0-39-5.5-56.3-16.3l-3.9-2.4 0.6-4.5c5-35.7 27.1-65.9 59-80.8 31.9-14.9 69.3-12.4 99.8 6.7l3.9 2.4-0.6 4.5c-5 35.7-27.1 65.9-59 80.8-13.8 6.5-28.7 9.6-43.5 9.6z m-45-25.8c25.7 14.4 56.2 15.8 82.5 3.5 26.3-12.3 44.8-36.5 50.3-65.5-25.7-14.4-56.2-15.8-82.5-3.5-26.2 12.3-44.8 36.5-50.3 65.5zM618.5 950l-4.5-0.2c-36-1.3-68.3-20-86.5-50.3-18.2-30.2-19.6-67.6-3.8-100l2-4.1 4.5 0.2c36 1.3 68.3 20 86.5 50.3 18.2 30.2 19.6 67.6 3.8 100l-2 4.1z m-84.2-140c-11.6 27.1-9.8 57.6 5.1 82.4 14.9 24.8 41 40.8 70.4 43.2 11.6-27.1 9.8-57.6-5.1-82.4-14.9-24.9-41-40.8-70.4-43.2z"/>
  <path fill="#ffffff"
        d="M610.8 853.3c-34.6 0-66.9-17.4-86.7-46.7l-2.5-3.8 2.4-3.9c19.1-30.6 51.5-49.2 86.8-49.8 35.3-0.6 68.3 16.8 88.5 46.7l2.5 3.8-2.4 3.9c-19.1 30.6-51.5 49.2-86.8 49.8h-1.8z m-72.4-50.7c17.6 23.6 45 37.3 73.9 36.8 29-0.5 55.8-15.1 72.6-39.3-17.6-23.6-45-37.3-73.9-36.8-28.9 0.4-55.8 15-72.6 39.3z"/>
  <path fill="#ffffff"
        d="M525.9 810l-2.1-4c-16.9-31.8-16.8-69.2 0.3-100s48.7-50.7 84.7-53.3l4.5-0.3 2.1 4c16.9 31.8 16.8 69.2-0.3 100-17.1 30.8-48.7 50.7-84.7 53.3l-4.5 0.3z m79.2-142.9c-29.3 3.5-54.8 20.3-68.8 45.7-14.1 25.4-14.8 55.9-2.2 82.6 29.3-3.5 54.8-20.3 68.8-45.7 14-25.4 14.8-55.9 2.2-82.6z"/>
  <path fill="#ffffff"
        d="M534.2 809.9l-4.5-0.2c-36-1.3-68.3-20-86.5-50.3-18.2-30.2-19.6-67.6-3.8-100l2-4.1 4.5 0.2c36 1.3 68.3 20 86.5 50.3 18.2 30.2 19.6 67.6 3.8 100l-2 4.1z m-84.1-140.1c-11.6 27.1-9.8 57.6 5.1 82.4 14.9 24.8 41 40.8 70.4 43.2 11.6-27.1 9.8-57.6-5.1-82.4-15-24.8-41-40.7-70.4-43.2z"/>
  <path fill="#ffffff"
        d="M447.3 856.2c-34.6 0-66.9-17.4-86.7-46.7l-2.5-3.8 2.4-3.9c19.1-30.6 51.5-49.2 86.8-49.8 35.2-0.6 68.3 16.8 88.5 46.7l2.5 3.8-2.4 3.9c-19.1 30.6-51.5 49.2-86.8 49.8h-1.8z m-72.4-50.8c17.6 23.6 44.9 37.2 73.9 36.8 29-0.5 55.8-15.1 72.6-39.3-17.6-23.6-44.9-37.2-73.9-36.8-29 0.5-55.8 15.1-72.6 39.3z"/>
  <path fill="#ffffff"
        d="M446.6 953l-2.1-4c-16.9-31.8-16.8-69.2 0.3-100 17.1-30.8 48.7-50.7 84.7-53.3l4.5-0.3 2.1 4c16.9 31.8 16.8 69.2-0.3 100-17.1 30.8-48.7 50.7-84.7 53.3l-4.5 0.3z m10.4-97.2c-14.1 25.4-14.8 55.9-2.2 82.6 29.3-3.5 54.8-20.3 68.8-45.7 14.1-25.4 14.8-55.9 2.2-82.6-29.2 3.5-54.7 20.3-68.8 45.7zM791.9 828.5c-13.6 0-27.3-2.7-40.2-8.2-32.5-13.8-55.6-43.2-61.8-78.7l-0.8-4.5 3.8-2.5c29.9-20.1 67.1-24 99.5-10.2 32.5 13.8 55.6 43.2 61.8 78.7l0.8 4.5-3.8 2.5c-17.9 12.2-38.6 18.4-59.3 18.4z m-87.3-84.7c6.5 28.8 25.9 52.3 52.6 63.7 26.7 11.3 57.1 8.9 82.3-6.4-6.5-28.8-25.9-52.3-52.6-63.7-26.6-11.3-57.1-8.9-82.3 6.4z"/>
  <path fill="#ffffff"
        d="M731.2 753.6c-12.3 0-24.7-2.2-36.8-6.5l-4.3-1.6-0.3-4.5c-2.5-35.9 12.8-70.1 40.9-91.3 28.2-21.2 65.2-26.5 99-14.2l4.3 1.6 0.3 4.5c2.5 35.9-12.8 70.1-40.9 91.3-18.1 13.6-39.9 20.7-62.2 20.7z m-27.6-18.2c28.2 8.7 58.3 3.7 81.4-13.7 23.1-17.4 36.3-45 35.6-74.5-28.2-8.7-58.3-3.7-81.4 13.7s-36.2 45-35.6 74.5z"/>
  <path fill="#ffffff"
        d="M697.8 748.8l-4.1-2c-32.4-15.8-54.3-46.1-58.6-81.1s9.6-69.7 37.2-92.9l3.5-2.9 4.1 2c32.4 15.8 54.3 46.1 58.6 81.1s-9.6 69.7-37.2 92.9l-3.5 2.9z m-19.9-162.2c-21.6 20-32.4 48.6-28.8 77.4 3.5 28.8 20.9 53.9 46.7 68.1 21.6-20 32.4-48.6 28.8-77.4-3.5-28.8-20.8-53.9-46.7-68.1z"/>
  <path fill="#ffffff"
        d="M641.4 764.6c-13.6 0-27.3-2.7-40.2-8.2-32.5-13.8-55.6-43.2-61.8-78.7l-0.8-4.5 3.8-2.5c29.9-20.1 67.1-24 99.5-10.2 32.5 13.8 55.6 43.2 61.8 78.7l0.8 4.5-3.8 2.5c-18 12.2-38.6 18.4-59.3 18.4z m-87.3-84.7c6.5 28.8 25.9 52.3 52.6 63.7 26.7 11.3 57.1 8.9 82.3-6.4-6.5-28.8-25.9-52.3-52.6-63.7-26.7-11.3-57.1-8.9-82.3 6.4z"/>
  <path fill="#ffffff"
        d="M600.6 852c-12.3 0-24.7-2.2-36.8-6.5l-4.3-1.6-0.3-4.5c-2.5-35.9 12.8-70.1 40.9-91.3 28.2-21.2 65.2-26.5 99-14.2l4.3 1.6 0.3 4.5c2.5 35.9-12.8 70.1-40.9 91.3-18.1 13.6-39.9 20.7-62.2 20.7zM573 833.8c28.2 8.7 58.3 3.7 81.4-13.7 23.1-17.4 36.3-45 35.6-74.5-28.2-8.7-58.3-3.7-81.4 13.7-23.1 17.4-36.2 45-35.6 74.5z"/>
  <path fill="#ffffff"
        d="M717.8 911.1l-4.1-2c-32.4-15.8-54.3-46.1-58.6-81.1-4.3-35 9.6-69.7 37.2-92.9l3.5-2.9 4.1 2c32.4 15.8 54.3 46.1 58.6 81.1s-9.6 69.7-37.2 92.9l-3.5 2.9zM669 826.3c3.5 28.8 20.9 53.9 46.7 68.1 21.6-20 32.4-48.6 28.8-77.4-3.5-28.8-20.9-53.9-46.7-68.1-21.6 20-32.3 48.6-28.8 77.4zM863.5 627c-26.8 0-53-10.5-73.1-29.9l-3.3-3.2 1.6-4.3c12.3-33.9 40.2-58.8 74.5-66.7 34.4-7.9 70.3 2.3 96.2 27.3l3.3 3.2-1.6 4.3c-12.3 33.9-40.2 58.8-74.5 66.7-7.6 1.8-15.4 2.6-23.1 2.6z m-60-36.9c22.2 19.4 51.7 27.1 80 20.6 28.2-6.5 51.4-26.4 62.8-53.6-22.2-19.4-51.7-27.1-80-20.6-28.2 6.6-51.4 26.5-62.8 53.6z"/>
  <path fill="#ffffff"
        d="M792.8 600l-2.9-3.5c-23.2-27.6-30.8-64.2-20.5-97.9s37.1-59.8 71.8-69.7l4.4-1.3 2.9 3.5c23.2 27.6 30.8 64.2 20.5 97.9s-37.1 59.8-71.8 69.7l-4.4 1.3z m47.8-156.2c-27.9 9.5-49.4 31.2-57.8 59-8.5 27.7-2.9 57.7 15 81.2 27.9-9.5 49.4-31.2 57.8-59 8.4-27.7 2.8-57.8-15-81.2z"/>
  <path fill="#ffffff"
        d="M777.6 600.6c-28.9 0-56.4-11.6-76.2-32.8-24-25.8-33.2-62-24.5-97l1.1-4.4 4.5-0.8c35.5-6.3 71 5.4 95.1 31.2 24 25.8 33.2 62 24.5 97l-1.1 4.4-4.5 0.8c-6.4 1.1-12.7 1.6-18.9 1.6z m-88.1-121.9c-5.7 28.9 2.4 58.4 22.2 79.6 19.8 21.2 48.6 31.3 77.8 27.6 5.7-28.9-2.4-58.4-22.2-79.6-19.8-21.2-48.6-31.4-77.8-27.6z"/>
  <path fill="#ffffff"
        d="M704.2 663.8c-26.8 0-53-10.5-73.1-29.9l-3.3-3.2 1.6-4.3c12.3-33.9 40.2-58.8 74.5-66.7 34.4-7.9 70.3 2.3 96.2 27.3l3.3 3.2-1.6 4.3c-12.3 33.9-40.2 58.8-74.5 66.7-7.7 1.8-15.4 2.6-23.1 2.6z m-60-36.9c22.2 19.4 51.7 27.1 80 20.6 28.2-6.5 51.4-26.4 62.8-53.6-22.2-19.4-51.7-27.1-80-20.6-28.2 6.6-51.4 26.5-62.8 53.6z"/>
  <path fill="#ffffff"
        d="M745 756.4l-2.9-3.5c-23.2-27.6-30.8-64.2-20.5-97.9s37.1-59.8 71.8-69.7l4.4-1.3 2.9 3.5c23.2 27.6 30.8 64.2 20.5 97.9s-37.1 59.8-71.8 69.7l-4.4 1.3z m-10.1-97.3c-8.5 27.7-2.9 57.7 15 81.2 27.9-9.5 49.4-31.2 57.8-59 8.5-27.7 2.9-57.7-15-81.2-27.8 9.5-49.3 31.3-57.8 59z"/>
  <path fill="#ffffff"
        d="M889.1 720.2c-28.9 0-56.4-11.6-76.2-32.8-24-25.8-33.2-62-24.5-97l1.1-4.4 4.5-0.8c35.5-6.3 71 5.4 95.1 31.2 24 25.8 33.2 62 24.5 97l-1.1 4.4-4.5 0.8c-6.3 1.1-12.6 1.6-18.9 1.6zM801 598.3c-5.7 28.9 2.4 58.4 22.2 79.6 19.8 21.2 48.6 31.3 77.8 27.6 5.7-28.9-2.4-58.4-22.2-79.6-19.7-21.2-48.5-31.4-77.8-27.6zM801.8 422.1c-5 0-10.1-0.4-15.2-1.1l-4.5-0.6-1.3-4.4c-9.9-34.6-2.1-71.2 21.1-97.8 23.1-26.6 58.2-39.5 93.9-34.5l4.5 0.6 1.3 4.4c9.9 34.6 2.1 71.2-21.1 97.8-19.8 22.9-48.4 35.6-78.7 35.6z m-8.6-14.4c29.4 2.7 57.8-8.5 76.8-30.3 19-21.9 26.1-51.6 19.3-80.3-29.4-2.7-57.8 8.5-76.8 30.3-19 21.9-26.1 51.6-19.3 80.3z"/>
  <path fill="#ffffff"
        d="M790.4 422l-4.4-1.1c-35-8.7-62.7-33.8-74.2-67.1s-5.1-70.2 17.1-98.6l2.8-3.6 4.4 1.1c35 8.7 62.7 33.8 74.2 67.1s5.1 70.2-17.1 98.6l-2.8 3.6z m-53.3-154.5c-17 24.1-21.6 54.3-12.1 81.7 9.4 27.4 31.6 48.4 59.9 56.9 17-24.1 21.6-54.3 12.1-81.7-9.4-27.4-31.6-48.4-59.9-56.9z"/>
  <path fill="#ffffff"
        d="M717 451.5c-6.5 0-13.1-0.6-19.6-1.9-34.6-6.7-63.3-30.7-76.8-64.1l-1.7-4.2 3.2-3.3c25-25.9 60.6-37.4 95.2-30.7 34.6 6.7 63.3 30.7 76.8 64.1l1.7 4.2-3.2 3.3c-20.2 21.1-47.5 32.6-75.6 32.6z m-81.6-67c12.4 26.8 36.2 45.8 64.7 51.3s57.7-3.2 79.2-23.4c-12.4-26.8-36.2-45.8-64.7-51.3-28.4-5.5-57.7 3.2-79.2 23.4z"/>
  <path fill="#ffffff"
        d="M694.5 545.5c-5 0-10.1-0.4-15.2-1.1l-4.5-0.6-1.3-4.4c-9.9-34.6-2.1-71.2 21.1-97.8 23.1-26.6 58.2-39.5 93.9-34.5l4.5 0.6 1.3 4.4c9.9 34.6 2.1 71.2-21.1 97.8-19.7 22.9-48.4 35.6-78.7 35.6z m-8.6-14.4c29.4 2.7 57.8-8.5 76.8-30.3 19-21.9 26.1-51.6 19.3-80.3-29.4-2.7-57.8 8.5-76.8 30.3-19 21.9-26 51.7-19.3 80.3z"/>
  <path fill="#ffffff"
        d="M843.6 576.6l-4.4-1.1c-35-8.7-62.7-33.8-74.2-67.1s-5.1-70.2 17.1-98.6l2.8-3.6 4.4 1.1c35 8.7 62.7 33.8 74.2 67.1s5.1 70.2-17.1 98.6l-2.8 3.6z m-65.3-72.8c9.4 27.4 31.6 48.4 59.9 56.9 17-24.1 21.6-54.3 12.1-81.7-9.4-27.4-31.6-48.4-59.9-56.9-17 24.1-21.6 54.3-12.1 81.7z"/>
  <path fill="#ffffff"
        d="M877.6 482.7c-6.5 0-13.1-0.6-19.6-1.9-34.6-6.7-63.3-30.7-76.8-64.1l-1.7-4.2 3.2-3.3c25-25.9 60.6-37.4 95.2-30.7 34.6 6.7 63.3 30.7 76.8 64.1l1.7 4.2-3.2 3.3c-20.3 21.1-47.6 32.6-75.6 32.6z m-17-15.6c28.5 5.5 57.7-3.2 79.2-23.4-12.4-26.8-36.2-45.8-64.7-51.3s-57.7 3.2-79.2 23.4c12.4 26.7 36.3 45.7 64.7 51.3zM676.2 283l-3.6-2.8c-28.4-22.2-43.5-56.4-40.4-91.5 3.1-35.1 23.9-66.2 55.7-83.1l4-2.1 3.6 2.8c28.4 22.2 43.5 56.4 40.4 91.5-3.1 35.1-23.9 66.2-55.7 83.1l-4 2.1z m14.2-162.8c-25.3 15.1-41.8 40.8-44.3 69.7-2.5 28.9 9.2 57.1 31.5 76.3 25.3-15.1 41.8-40.8 44.3-69.7 2.5-28.9-9.2-57.1-31.5-76.3z"/>
  <path fill="#ffffff"
        d="M639.3 289c-21 0-41.7-6.3-59.3-18.6-28.9-20.2-45.4-53.8-44.1-89.8l0.2-4.5 4.2-1.7c33.4-13.5 70.6-9.5 99.5 10.7 28.9 20.2 45.4 53.8 44.1 89.8l-0.2 4.5-4.2 1.7c-13.1 5.3-26.7 7.9-40.2 7.9z m-89.4-103.3c0.4 29.5 14.5 56.6 38.2 73.2 23.7 16.6 54 20.6 81.9 10.8-0.4-29.5-14.5-56.6-38.2-73.2-23.8-16.6-54.1-20.5-81.9-10.8z"/>
  <path fill="#ffffff"
        d="M581.3 366c-19.5 0-39-5.5-56.3-16.3l-3.9-2.4 0.6-4.5c5-35.7 27.1-65.9 59-80.8s69.3-12.4 99.8 6.7l3.9 2.4-0.6 4.5c-5 35.7-27.1 65.9-59 80.8-13.8 6.4-28.7 9.6-43.5 9.6z m-44.9-25.8c25.7 14.4 56.2 15.8 82.5 3.5 26.3-12.3 44.8-36.5 50.3-65.5-25.7-14.4-56.2-15.8-82.5-3.5-26.3 12.3-44.8 36.5-50.3 65.5z"/>
  <path fill="#ffffff"
        d="M661.9 445.9l-3.6-2.8c-28.4-22.2-43.5-56.4-40.4-91.5 3.1-35.1 23.9-66.2 55.7-83.1l4-2.1 3.6 2.8c28.4 22.2 43.5 56.4 40.4 91.5-3.1 35.1-23.9 66.2-55.7 83.1l-4 2.1z m-30.1-93.1c-2.5 28.9 9.2 57.1 31.5 76.3 25.3-15.1 41.8-40.8 44.3-69.7 2.5-28.9-9.2-57.1-31.5-76.3-25.3 15.1-41.7 40.8-44.3 69.7z"/>
  <path fill="#ffffff"
        d="M773.3 382.8c-21 0-41.7-6.3-59.3-18.6-28.9-20.2-45.4-53.8-44.1-89.8l0.2-4.5 4.2-1.7c33.4-13.5 70.6-9.5 99.5 10.7 28.9 20.2 45.4 53.8 44.1 89.8l-0.2 4.5-4.2 1.7c-13.1 5.3-26.7 7.9-40.2 7.9z m-89.5-103.3c0.4 29.5 14.5 56.6 38.2 73.2 23.7 16.6 54 20.6 81.9 10.8-0.4-29.5-14.5-56.6-38.2-73.2-23.7-16.6-54-20.5-81.9-10.8z"/>
  <path fill="#ffffff"
        d="M729.5 296.9c-19.5 0-39-5.5-56.3-16.3l-3.9-2.4 0.6-4.5c5-35.7 27.1-65.9 59-80.8s69.3-12.4 99.8 6.7l3.9 2.4-0.6 4.5c-5 35.7-27.1 65.9-59 80.8-13.8 6.4-28.7 9.6-43.5 9.6z m-44.9-25.8c25.7 14.4 56.2 15.8 82.5 3.5 26.3-12.3 44.8-36.5 50.3-65.5-25.7-14.4-56.2-15.8-82.5-3.5-26.3 12.2-44.8 36.5-50.3 65.5z"/>
</svg>
