<?xml version="1.0" standalone="no"?><!DOCTYPE svg PUBLIC "-//W3C//DTD SVG 1.1//EN"
  "http://www.w3.org/Graphics/SVG/1.1/DTD/svg11.dtd">
<svg t="1586274985950" class="icon" viewBox="0 0 1024 1024" version="1.1" xmlns="http://www.w3.org/2000/svg" p-id="2117"
     width="64" height="64">
  <defs>
    <style type="text/css"></style>
  </defs>
  <path
    d="M888 676v-48c0-55-45-100-100-100H548v-72h60a100 100 0 0 0 100-100V164A100 100 0 0 0 608 64H416a100 100 0 0 0-100 100v192a100 100 0 0 0 100 100h60v72H236c-55 0-100 45-100 100v48a100 100 0 0 0-72 96v88a100 100 0 0 0 100 100h16a100 100 0 0 0 100-100v-88a100 100 0 0 0-72-96v-26a50.15 50.15 0 0 1 50-50h218v76a100 100 0 0 0-72 96v88a100 100 0 0 0 100 100h16a100 100 0 0 0 100-100v-88a100 100 0 0 0-72-96v-76h218a50.15 50.15 0 0 1 50 50v26a100 100 0 0 0-72 96v88a100 100 0 0 0 100 100h16a100 100 0 0 0 100-100v-88a100 100 0 0 0-72-96zM388 334V186a50 50 0 0 1 50-50h148a50 50 0 0 1 50 50v148a50 50 0 0 1-50 50H438a50 50 0 0 1-50-50zM208 852a36 36 0 0 1-36 36 36 36 0 0 1-36-36v-72a36 36 0 0 1 36-36 36 36 0 0 1 36 36z m340 0a36 36 0 0 1-36 36 36 36 0 0 1-36-36v-72a36 36 0 0 1 36-36 36 36 0 0 1 36 36z m340 0a36 36 0 0 1-36 36 36 36 0 0 1-36-36v-72a36 36 0 0 1 36-36 36 36 0 0 1 36 36z"
    p-id="2118" fill="#ffffff"></path>
</svg>
